<?xml version="1.0" encoding="utf-8"?>
<!-- Generator: Adobe Illustrator 15.1.0, SVG Export Plug-In . SVG Version: 6.00 Build 0)  -->
<!DOCTYPE svg PUBLIC "-//W3C//DTD SVG 1.1//EN" "http://www.w3.org/Graphics/SVG/1.1/DTD/svg11.dtd">
<svg version="1.1" id="Ebene_1" xmlns="http://www.w3.org/2000/svg" xmlns:xlink="http://www.w3.org/1999/xlink" x="0px" y="0px"
	 width="35px" height="35px" viewBox="0 0 35 35" enable-background="new 0 0 35 35" xml:space="preserve">
<g id="motoroel">
	<g>
		<polygon fill="#FFFFFF" points="17.123,3.044 17.123,1.782 10.916,1.782 10.916,3.044 10.767,3.044 10.767,3.875 17.34,3.875 
			17.34,3.044 		"/>
	</g>
	<g>
		<g>
			<path fill="#FFFFFF" d="M28.523,15.26c-0.158-4.706-0.725-6.251-1.164-8.37c-0.147-0.707-0.35-2.382-0.789-2.99
				c-1.426-1.972-4.81-0.123-4.81-0.123s-2.431,1.18-3.383,1.668c-0.954,0.487-1.523,0-1.523,0h-6.19
				C10.553,6.91,9.647,8.388,9.647,8.388s-2.014,3.54-2.84,4.962c-0.825,1.426-0.715,2.548-0.715,2.548s0.064,13.756,0.064,15.646
				c0,1.879,1.84,1.666,1.84,1.666s16.191,0,18.674,0c2.477,0,2.092-1.856,2.092-1.992c0-0.137,0.021-2.635,0.127-6.657
				C29.002,20.535,28.688,19.963,28.523,15.26z M16.943,29.127c-2.868,0-5.192-2.322-5.192-5.191c0-2.865,5.192-10,5.192-10
				s5.188,7.135,5.188,10C22.132,26.805,19.809,29.127,16.943,29.127z M24.693,15.628c-0.801,0.119-1.332-0.412-1.565-1.154
				c-0.25-0.787-1.795-5.679-1.795-5.679s-0.424-1.093,0.412-1.654c0.681-0.455,2.114-1.349,2.446-0.068
				c0.386,1.479,0.855,2.962,1.049,3.741c0.197,0.821,0.543,2.225,0.57,2.949C25.837,14.288,25.523,15.507,24.693,15.628z"/>
		</g>
	</g>
	<path fill="#FFFFFF" d="M15.523,18.6c0,0-2.738,3.117-0.709,5.521c0,0,0.635,1.084,2.69,1.188
		C17.505,25.311,14.092,22.307,15.523,18.6z"/>
</g>
</svg>
